<svg width="170" height="42" viewBox="0 0 170 42" fill="none" xmlns="http://www.w3.org/2000/svg">
<g clip-path="url(#clip0_73_1208)">
<path d="M154.1 19.3002C153.3 19.3002 152.3 18.9002 152.3 16.8002C152.3 14.7002 153.2 14.3002 154.1 14.3002H164.5V19.2002L154.1 19.3002ZM162.1 0.200195H148.3V5.4002H161.8C163.8 5.4002 164.6 6.3002 164.6 8.6002V9.4002H153.4C149.1 9.4002 147 11.5002 147 16.4002V17.5002C147 22.5002 149.2 24.5002 153.6 24.5002H170V8.6002C169.9 2.5002 168 0.200195 162.1 0.200195Z" fill="white"/>
<path d="M125.3 0.200195V5.4002H133.1V24.5002H138.6V5.4002H146.4V0.200195H125.3Z" fill="white"/>
<path d="M108.4 19.3002C107.6 19.3002 106.6 18.9002 106.6 16.8002C106.6 14.7002 107.5 14.3002 108.4 14.3002H118.8V19.2002L108.4 19.3002ZM116.4 0.200195H102.6V5.4002H116.1C118.1 5.4002 118.9 6.3002 118.9 8.6002C118.9 8.6002 118.9 9.30019 118.9 9.4002H107.7C103.4 9.4002 101.3 11.5002 101.3 16.4002V17.5002C101.3 22.5002 103.5 24.5002 107.9 24.5002H124.3V8.6002C124.3 2.5002 122.2 0.200195 116.4 0.200195Z" fill="white"/>
<path d="M91 0.200195H76.3V24.4002H91.3C97.2 24.5002 99.1 21.5002 99.1 15.9002V8.8002C99.1 2.4002 96.6 0.200195 91 0.200195ZM93.5 16.1002C93.5 18.4002 92.7 19.3002 90.7 19.3002H81.8V5.5002H90.7C92.7 5.5002 93.5 6.4002 93.5 8.7002V16.1002Z" fill="white"/>
<path d="M48.6 0.200195V5.4002H56.4V24.5002H61.9V5.4002H69.7V0.200195H48.6Z" fill="white"/>
<path d="M25.8 0.200195V5.4002H33.6V24.5002H39.1V5.4002H46.9V0.200195H25.8Z" fill="white"/>
<path d="M18 18.7C17.9 18.5 10.5 4.1 9.6 2.8C8.6 1.1 7.4 0 4.9 0C2.7 0 0 1 0 6.4V24.5H5.5V9.4C5.5 8.3 5.4 6.7 5.4 6.4C5.4 6.2 5.4 5.9 5.5 5.8C5.7 5.7 5.8 5.9 5.9 6C6 6.1 12.9 19.7 14.3 21.9C15.3 23.5 16.6 24.7 19 24.7C21.2 24.7 23.9 23.7 23.9 18.3V0.2H18.4V15.3C18.4 16.4 18.5 18 18.5 18.3C18.5 18.5 18.5 18.8 18.4 18.9C18.3 19.1 18.2 18.9 18 18.7Z" fill="white"/>
<path d="M52.8 32.6C53.7 33.1 54.2 33.9 54.4 35.1H53.2C53.1 34.4 52.8 34 52.3 33.6C51.8 33.3 51.3 33.1 50.6 33.1C49.8 33.1 49 33.4 48.5 34.1C48 34.8 47.7 35.7 47.7 37C47.7 38.1 47.9 39 48.4 39.7C48.9 40.4 49.7 40.7 50.7 40.7C51.5 40.7 52.2 40.5 52.7 40C53.2 39.5 53.5 38.7 53.5 37.7H50.6V36.7H54.6V41.9H53.8L53.5 40.5C53.1 41 52.7 41.3 52.4 41.5C51.9 41.8 51.2 42 50.4 42C49.3 42 48.4 41.6 47.6 40.9C46.8 40 46.3 38.8 46.3 37.2C46.3 35.6 46.7 34.4 47.6 33.5C48.4 32.7 49.4 32.2 50.6 32.2C51.5 32 52.2 32.2 52.8 32.6ZM63.9 35.3C64.5 35.9 64.8 36.7 64.8 37.9C64.8 39 64.6 39.9 64 40.7C63.4 41.5 62.7 41.8 61.6 41.8C60.7 41.8 60 41.5 59.4 40.8C58.8 40.1 58.6 39.3 58.6 38.2C58.6 37.1 58.9 36.1 59.4 35.4C59.9 34.7 60.7 34.4 61.7 34.4C62.6 34.4 63.3 34.7 63.9 35.3ZM63.2 39.9C63.5 39.3 63.6 38.7 63.6 38C63.6 37.3 63.5 36.9 63.3 36.4C63 35.7 62.5 35.4 61.7 35.4C61 35.4 60.5 35.6 60.2 36.2C59.9 36.7 59.7 37.4 59.7 38.2C59.7 38.9 59.9 39.5 60.2 40C60.5 40.5 61 40.7 61.6 40.7C62.5 40.8 62.9 40.5 63.2 39.9ZM107.4 35.3C108 35.9 108.3 36.7 108.3 37.9C108.3 39 108.1 39.9 107.5 40.7C107 41.4 106.2 41.8 105.1 41.8C104.2 41.8 103.5 41.5 102.9 40.8C102.4 40.1 102.1 39.3 102.1 38.2C102.1 37.1 102.4 36.1 102.9 35.4C103.4 34.7 104.2 34.4 105.2 34.4C106 34.4 106.8 34.7 107.4 35.3ZM106.6 39.9C106.9 39.3 107 38.7 107 38C107 37.3 106.9 36.9 106.7 36.4C106.4 35.7 105.9 35.4 105.1 35.4C104.4 35.4 103.9 35.6 103.6 36.2C103.3 36.7 103.1 37.4 103.1 38.2C103.1 38.9 103.3 39.5 103.6 40C103.9 40.5 104.4 40.7 105 40.7C105.9 40.8 106.4 40.5 106.6 39.9ZM76.6 37.4C76.8 37.3 77 37.3 77.1 37C77.2 36.9 77.2 36.8 77.2 36.5C77.2 36.1 77.1 35.8 76.8 35.7C76.5 35.5 76.1 35.4 75.7 35.4C75.1 35.4 74.7 35.6 74.4 35.9C74.3 36.1 74.2 36.4 74.2 36.7H73.2C73.2 35.9 73.5 35.3 74 34.9C74.5 34.5 75.1 34.4 75.8 34.4C76.6 34.4 77.2 34.6 77.7 34.9C78.2 35.2 78.4 35.7 78.4 36.3V40.3C78.4 40.4 78.4 40.5 78.5 40.6C78.6 40.7 78.6 40.7 78.8 40.7C78.9 40.7 78.9 40.7 79 40.7C79.1 40.7 79.1 40.7 79.2 40.6V41.4C79 41.5 78.9 41.5 78.8 41.5C78.7 41.5 78.6 41.5 78.4 41.5C78 41.5 77.7 41.4 77.6 41.1C77.5 40.9 77.4 40.7 77.4 40.4C77.2 40.7 76.9 41 76.4 41.2C76 41.4 75.5 41.6 75 41.6C74.4 41.6 73.9 41.4 73.5 41C73.1 40.6 72.9 40.1 72.9 39.6C72.9 38.9 73.1 38.5 73.5 38.1C73.9 37.7 74.4 37.5 75 37.4H76.6ZM74.2 40.5C74.4 40.7 74.7 40.8 75 40.8C75.4 40.8 75.8 40.7 76.1 40.5C76.7 40.2 77.1 39.7 77.1 38.9V37.9C77 38 76.8 38.1 76.6 38.1C76.4 38.1 76.2 38.2 75.9 38.2L75.2 38.3C74.8 38.4 74.5 38.4 74.3 38.5C73.9 38.7 73.8 39 73.8 39.5C73.8 40 74 40.3 74.2 40.5ZM119.2 37.4C119.4 37.3 119.6 37.3 119.7 37C119.8 36.9 119.8 36.8 119.8 36.5C119.8 36.1 119.7 35.8 119.4 35.7C119.2 35.5 118.7 35.4 118.3 35.4C117.7 35.4 117.3 35.6 117 35.9C116.9 36.1 116.8 36.4 116.8 36.7H115.8C115.8 35.9 116.1 35.3 116.6 34.9C117.1 34.5 117.7 34.4 118.4 34.4C119.2 34.4 119.8 34.6 120.3 34.9C120.8 35.2 121 35.7 121 36.3V40.3C121 40.4 121 40.5 121.1 40.6C121.2 40.7 121.2 40.7 121.4 40.7C121.5 40.7 121.5 40.7 121.6 40.7C121.7 40.7 121.7 40.7 121.8 40.6V41.4C121.6 41.5 121.5 41.5 121.4 41.5C121.3 41.5 121.2 41.5 121 41.5C120.6 41.5 120.3 41.4 120.2 41.1C120.1 40.9 120 40.7 120 40.4C119.8 40.7 119.5 41 119 41.2C118.6 41.4 118.1 41.6 117.6 41.6C117 41.6 116.5 41.4 116.1 41C115.7 40.6 115.5 40.1 115.5 39.6C115.5 38.9 115.7 38.5 116.1 38.1C116.5 37.7 117 37.5 117.6 37.4H119.2ZM116.8 40.5C117 40.7 117.3 40.8 117.6 40.8C118 40.8 118.4 40.7 118.7 40.5C119.3 40.2 119.7 39.7 119.7 38.9V37.9C119.6 38 119.4 38.1 119.2 38.1C119 38.2 118.8 38.2 118.5 38.2L117.8 38.3C117.4 38.4 117.1 38.4 116.9 38.5C116.5 38.7 116.4 39 116.4 39.5C116.5 40 116.6 40.3 116.8 40.5ZM85.7 32H86.8V41.7H85.7V32ZM88.5 34.4H89.6V35.7C89.9 35.3 90.3 35 90.6 34.9C90.9 34.8 91.3 34.7 91.8 34.7C92.8 34.7 93.4 35.1 93.7 35.7C93.9 36.1 94 36.6 94 37.3V41.8H92.9V37.3C92.9 36.9 92.8 36.6 92.7 36.3C92.5 35.9 92.2 35.6 91.6 35.6C91.4 35.6 91.1 35.6 90.9 35.7C90.6 35.8 90.3 36 90.1 36.2C89.9 36.4 89.8 36.6 89.7 36.9C89.6 37.1 89.6 37.5 89.6 37.9V41.7H88.5V34.4ZM95.5 34.4H96.6V35.7C96.9 35.3 97.3 35 97.6 34.9C97.9 34.8 98.3 34.7 98.8 34.7C99.8 34.7 100.4 35.1 100.7 35.7C100.9 36.1 101 36.6 101 37.3V41.8H99.9V37.3C99.9 36.9 99.8 36.6 99.7 36.3C99.5 35.9 99.2 35.6 98.6 35.6C98.4 35.6 98.1 35.6 97.9 35.7C97.6 35.8 97.3 36 97.1 36.2C96.9 36.4 96.8 36.6 96.7 36.9C96.6 37.1 96.6 37.5 96.6 37.9V41.7H95.5V34.4ZM109.9 34.4L111.8 40.3L113.8 34.4H115.1L112.4 41.7H111.2L108.6 34.4H109.9ZM122.7 32H123.8V34.4H124.9V35.3H123.8V40.2C123.8 40.4 123.9 40.6 124 40.7C124.1 40.8 124.2 40.8 124.4 40.8C124.5 40.8 124.5 40.8 124.6 40.8C124.7 40.8 124.7 40.8 124.8 40.8V41.7C124.7 41.8 124.6 41.8 124.4 41.8C124.3 41.8 124.1 41.8 123.9 41.8C123.4 41.8 123 41.7 122.8 41.4C122.6 41.1 122.5 40.8 122.5 40.3V35.5H121.6V34.6H122.5L122.7 32ZM130.8 35.3C131.4 35.9 131.7 36.7 131.7 37.9C131.7 39 131.5 39.9 130.9 40.7C130.4 41.4 129.6 41.8 128.5 41.8C127.6 41.8 126.9 41.5 126.3 40.8C125.8 40.1 125.5 39.3 125.5 38.2C125.5 37.1 125.8 36.1 126.3 35.4C126.8 34.7 127.6 34.4 128.6 34.4C129.5 34.4 130.2 34.7 130.8 35.3ZM130.1 39.9C130.4 39.3 130.5 38.7 130.5 38C130.5 37.3 130.4 36.9 130.2 36.4C129.9 35.7 129.4 35.4 128.6 35.4C127.9 35.4 127.4 35.6 127.1 36.2C126.8 36.7 126.6 37.4 126.6 38.2C126.6 38.9 126.8 39.5 127.1 40.1C127.4 40.6 127.9 40.8 128.5 40.8C129.3 40.8 129.8 40.5 130.1 39.9ZM132.9 34.4H134V35.7C134.1 35.5 134.3 35.2 134.7 34.9C135.1 34.6 135.4 34.4 135.9 34.4H136C136.1 34.4 136.1 34.4 136.2 34.4V35.6C136.1 35.6 136.1 35.6 136 35.6C135.9 35.6 135.9 35.6 135.8 35.6C135.2 35.6 134.8 35.8 134.5 36.1C134.2 36.4 134 37.1 134 37.6V41.8H132.9V34.4ZM71.1 35.3C70.6 34.7 69.9 34.4 69.1 34.4C68.7 34.4 68.3 34.5 68 34.6C67.6 34.8 67.3 35 67.1 35.4V32H66V41.7H67.1V40.7C67.3 41 67.5 41.2 67.7 41.4C68.1 41.6 68.5 41.8 69 41.8C69.9 41.8 70.6 41.4 71.2 40.7C71.7 40 72 39.1 72 38C71.9 36.8 71.6 35.9 71.1 35.3ZM70.3 40C70 40.5 69.5 40.8 68.9 40.8C68.1 40.8 67.5 40.4 67.2 39.7C67 39.3 67 38.8 67 38.1C67 37.2 67.2 36.5 67.6 36.2C68 35.8 68.4 35.6 68.9 35.6C69.5 35.6 69.9 35.8 70.2 36.3C70.5 36.8 70.7 37.4 70.7 38.1C70.7 38.8 70.6 39.5 70.3 40ZM81.4 40.7C81.2 40.6 81.2 40.5 81.2 40.2V32H80.1V40.3C80.1 40.7 80.2 41.1 80.4 41.4C80.6 41.6 80.9 41.8 81.5 41.8C81.6 41.8 81.7 41.8 81.7 41.8V40.8C81.5 40.8 81.4 40.7 81.4 40.7ZM57.7 40.7C57.5 40.6 57.5 40.5 57.5 40.2V32H56.4V40.3C56.4 40.7 56.5 41.1 56.7 41.4C56.9 41.6 57.2 41.8 57.8 41.8C57.9 41.8 58 41.8 58 41.8V40.8C57.9 40.8 57.8 40.7 57.7 40.7ZM7.7 32V33.1H4.5V41.7H3.2V33.1H0V32H7.7ZM13.6 34.4V39.1C13.6 39.5 13.7 39.8 13.8 40C14 40.4 14.4 40.7 14.9 40.7C15.7 40.7 16.2 40.3 16.5 39.6C16.7 39.2 16.7 38.6 16.7 38V34.5H17.9V41.6H16.8V40.6C16.6 40.8 16.4 41.1 16.3 41.3C15.9 41.7 15.3 41.8 14.7 41.8C13.7 41.8 13.1 41.4 12.7 40.8C12.5 40.4 12.4 40 12.4 39.4V34.5L13.6 34.4ZM20.2 39.3C20.3 39.7 20.3 40 20.5 40.2C20.8 40.6 21.3 40.7 22.1 40.7C22.5 40.7 22.9 40.6 23.3 40.4C23.7 40.2 23.8 39.9 23.8 39.6C23.8 39.3 23.7 39.1 23.4 38.9C23.2 38.8 22.9 38.7 22.4 38.6L21.4 38.4C20.8 38.3 20.3 38.1 20.1 37.9C19.6 37.6 19.3 37.2 19.3 36.6C19.3 35.9 19.5 35.4 20 35C20.5 34.6 21.1 34.4 22 34.4C23.1 34.4 23.9 34.7 24.3 35.3C24.6 35.7 24.7 36.1 24.7 36.6H23.6C23.6 36.4 23.5 36.1 23.3 35.9C23 35.6 22.5 35.4 21.9 35.4C21.4 35.4 21.1 35.5 20.9 35.6C20.7 35.8 20.5 36 20.5 36.3C20.5 36.6 20.7 36.8 21 37C21.2 37.1 21.4 37.2 21.8 37.3L22.6 37.5C23.4 37.7 24 37.9 24.3 38.1C24.8 38.4 25 38.9 25 39.5C25 40.1 24.8 40.6 24.3 41.1C23.8 41.6 23.1 41.8 22.1 41.8C21 41.8 20.3 41.6 19.9 41.1C19.5 40.6 19.2 40.1 19.2 39.4L20.2 39.3ZM36.6 38C36.6 39.1 36.8 40 37.4 40.7C37.9 41.4 38.6 41.8 39.6 41.8C40.1 41.8 40.6 41.7 40.9 41.4C41.1 41.3 41.3 41 41.5 40.7V41.7H42.6V32H41.5V35.4C41.3 35 41 34.8 40.6 34.6C40.2 34.4 39.9 34.4 39.5 34.4C38.7 34.4 38 34.7 37.5 35.3C36.8 35.9 36.6 36.8 36.6 38ZM37.7 38C37.7 37.3 37.9 36.7 38.1 36.2C38.4 35.7 38.9 35.5 39.4 35.5C39.9 35.5 40.4 35.7 40.7 36.1C41.1 36.5 41.3 37.1 41.3 38C41.3 38.7 41.2 39.2 41.1 39.6C40.8 40.4 40.3 40.7 39.4 40.7C38.8 40.7 38.3 40.5 38 40C37.9 39.5 37.7 38.8 37.7 38ZM26.4 32H27.5V34.4H28.6V35.3H27.5V40.2C27.5 40.4 27.6 40.6 27.7 40.7C27.8 40.8 27.9 40.8 28.1 40.8C28.2 40.8 28.2 40.8 28.3 40.8C28.4 40.8 28.4 40.8 28.5 40.8V41.7C28.4 41.8 28.3 41.8 28.1 41.8C28 41.8 27.8 41.8 27.7 41.8C27.2 41.8 26.8 41.7 26.6 41.4C26.4 41.1 26.3 40.8 26.3 40.3V35.5H25.4V34.6H26.3L26.4 32ZM34.1 34.8C34.6 35 34.9 35.3 35.2 35.7C35.5 36.1 35.6 36.5 35.7 36.9C35.8 37.2 35.8 37.7 35.8 38.4H30.7C30.7 39.1 30.9 39.7 31.2 40.1C31.5 40.5 32 40.8 32.6 40.8C33.2 40.8 33.7 40.6 34 40.2C34.2 40 34.4 39.7 34.4 39.4H35.5C35.4 39.6 35.4 39.9 35.2 40.2C35 40.5 34.8 40.7 34.6 41C34.2 41.4 33.8 41.6 33.3 41.7C33 41.8 32.7 41.8 32.3 41.8C31.5 41.8 30.7 41.5 30.1 40.8C29.5 40.2 29.2 39.3 29.2 38.2C29.2 37.1 29.5 36.2 30.1 35.5C30.7 34.8 31.5 34.5 32.5 34.5C33.2 34.4 33.6 34.5 34.1 34.8ZM34.5 37.5C34.4 37 34.3 36.6 34.2 36.3C33.9 35.8 33.4 35.5 32.6 35.5C32.1 35.5 31.6 35.7 31.3 36.1C30.9 36.5 30.8 37 30.7 37.6L34.5 37.5ZM8 34.4H9.1V35.7C9.2 35.5 9.4 35.2 9.8 34.9C10.2 34.6 10.5 34.4 11 34.4H11.1C11.1 34.4 11.2 34.4 11.3 34.4V35.6C11.2 35.6 11.2 35.6 11.1 35.6C11 35.6 11 35.6 10.9 35.6C10.4 35.6 9.9 35.8 9.6 36.1C9.3 36.4 9.1 37.1 9.1 37.6V41.7H8V34.4Z" fill="white"/>
</g>
<defs>
<clipPath id="clip0_73_1208">
<rect width="170" height="42" fill="white"/>
</clipPath>
</defs>
</svg>
