<?xml version="1.0"?>
<svg width="170" height="24.999999999999996" xmlns="http://www.w3.org/2000/svg" xmlns:svg="http://www.w3.org/2000/svg">
 <defs>
  <clipPath id="clip0_73_1110">
   <rect fill="white" height="25" id="svg_1" width="170"/>
  </clipPath>
 </defs>
 <g class="layer">
  <title>Layer 1</title>
  <g clip-path="url(#clip0_73_1110)" id="svg_2">
   <path d="m154.1,19.3c-0.8,0 -1.8,-0.4 -1.8,-2.5c0,-2.1 0.9,-2.5 1.8,-2.5l10.4,0l0,4.9l-10.4,0.1zm8,-19.1l-13.8,0l0,5.2l13.5,0c2,0 2.8,0.9 2.8,3.2l0,0.8l-11.2,0c-4.3,0 -6.4,2.1 -6.4,7l0,1.1c0,5 2.2,7 6.6,7l16.4,0l0,-15.9c-0.1,-6.1 -2,-8.4 -7.9,-8.4z" fill="#0059BC" id="svg_3"/>
   <path d="m125.3,0.2l0,5.2l7.8,0l0,19.1l5.5,0l0,-19.1l7.8,0l0,-5.2l-21.1,0z" fill="#0059BC" id="svg_4"/>
   <path d="m108.4,19.3c-0.8,0 -1.8,-0.4 -1.8,-2.5c0,-2.1 0.9,-2.5 1.8,-2.5l10.4,0l0,4.9l-10.4,0.1zm8,-19.1l-13.8,0l0,5.2l13.5,0c2,0 2.8,0.9 2.8,3.2c0,0 0,0.7 0,0.8l-11.2,0c-4.3,0 -6.4,2.1 -6.4,7l0,1.1c0,5 2.2,7 6.6,7l16.4,0l0,-15.9c0,-6.1 -2.1,-8.4 -7.9,-8.4z" fill="#0059BC" id="svg_5"/>
   <path d="m91,0.2l-14.7,0l0,24.2l15,0c5.9,0.1 7.8,-2.9 7.8,-8.5l0,-7.1c0,-6.4 -2.5,-8.6 -8.1,-8.6zm2.5,15.9c0,2.3 -0.8,3.2 -2.8,3.2l-8.9,0l0,-13.8l8.9,0c2,0 2.8,0.9 2.8,3.2l0,7.4z" fill="#0059BC" id="svg_6"/>
   <path d="m48.6,0.2l0,5.2l7.8,0l0,19.1l5.5,0l0,-19.1l7.8,0l0,-5.2l-21.1,0z" fill="#0059BC" id="svg_7"/>
   <path d="m27.5,8.69l-0.65,-7.9l4.32,-0.08l1.7,19.67l13.91,0.08l0.24,3.86l-19.04,0.32l-0.08,-8.19l-0.4,-7.76z" fill="#0059BC" id="svg_8"/>
   <path d="m18.4,18.7c-0.1,-0.2 -7.5,-14.6 -8.4,-15.9c-1,-1.7 -5.03,-1.83 -7.53,-1.83c-2.2,0 -2.07,0.03 -2.07,5.43l0,18.1l5.99,0.08l-0.49,-15.18c0,-1.1 -0.1,-2.7 -0.1,-3c0,-0.2 0,-0.5 0.1,-0.6c0.2,-0.1 0.3,0.1 0.4,0.2c0.1,0.1 7,13.7 8.4,15.9c1,1.6 2.3,2.8 4.7,2.8c2.2,0 4.9,-1 4.9,-6.4l0,-18.1l-5.5,0l0,15.1c0,1.1 0.1,2.7 0.1,3c0,0.2 0,0.5 -0.1,0.6c-0.1,0.2 -0.2,0 -0.4,-0.2z" fill="#0059BC" id="svg_9" transform="rotate(90.056, 12.3535, 12.45)"/>
  </g>
 </g>
</svg>
